<?xml version="1.0" encoding="UTF-8" standalone="no"?>
<!DOCTYPE svg PUBLIC "-//W3C//DTD SVG 1.1//EN"
 "http://www.w3.org/Graphics/SVG/1.1/DTD/svg11.dtd">
<!-- Generated by graphviz version 2.46.1 (20210214.0559)
 -->
<!-- Pages: 1 -->
<svg width="1192pt" height="880pt"
 viewBox="0.00 0.00 1192.26 879.80" xmlns="http://www.w3.org/2000/svg" xmlns:xlink="http://www.w3.org/1999/xlink">
<g id="graph0" class="graph" transform="scale(1 1) rotate(0) translate(4 875.8)">
<polygon fill="white" stroke="transparent" points="-4,4 -4,-875.8 1188.26,-875.8 1188.26,4 -4,4"/>
<text text-anchor="middle" x="592.13" y="-855.2" font-family="Arial" font-size="14.00">Attack Tree for product line robot</text>
<!-- reality -->
<g id="node1" class="node">
<title>reality</title>
<path fill="#272727" stroke="transparent" d="M648.56,-846.9C648.56,-846.9 602.01,-846.9 602.01,-846.9 596.01,-846.9 590.01,-840.9 590.01,-834.9 590.01,-834.9 590.01,-814.3 590.01,-814.3 590.01,-808.3 596.01,-802.3 602.01,-802.3 602.01,-802.3 648.56,-802.3 648.56,-802.3 654.56,-802.3 660.56,-808.3 660.56,-814.3 660.56,-814.3 660.56,-834.9 660.56,-834.9 660.56,-840.9 654.56,-846.9 648.56,-846.9"/>
<text text-anchor="middle" x="625.29" y="-820.4" font-family="Arial" font-size="14.00" fill="#ffffff">Reality</text>
</g>
<!-- Human -->
<g id="node2" class="node">
<title>Human</title>
<path fill="#d2d5dd" stroke="transparent" d="M201.03,-747.9C201.03,-747.9 71.55,-747.9 71.55,-747.9 65.55,-747.9 59.55,-741.9 59.55,-735.9 59.55,-735.9 59.55,-715.3 59.55,-715.3 59.55,-709.3 65.55,-703.3 71.55,-703.3 71.55,-703.3 201.03,-703.3 201.03,-703.3 207.03,-703.3 213.03,-709.3 213.03,-715.3 213.03,-715.3 213.03,-735.9 213.03,-735.9 213.03,-741.9 207.03,-747.9 201.03,-747.9"/>
<text text-anchor="middle" x="136.29" y="-721.4" font-family="Arial" font-size="14.00">Human are caraless</text>
</g>
<!-- reality&#45;&gt;Human -->
<g id="edge32" class="edge">
<title>reality&#45;&gt;Human</title>
<path fill="none" stroke="#2b303a" d="M589.81,-823.75C517.99,-823.07 351.04,-816.5 219.29,-773.2 204.62,-768.38 189.6,-760.87 176.44,-753.28"/>
<polygon fill="#2b303a" stroke="#2b303a" points="178.04,-750.15 167.66,-748.04 174.46,-756.16 178.04,-750.15"/>
</g>
<!-- PC -->
<g id="node3" class="node">
<title>PC</title>
<path fill="#d2d5dd" stroke="transparent" d="M360.27,-756.2C360.27,-756.2 238.31,-756.2 238.31,-756.2 232.31,-756.2 226.31,-750.2 226.31,-744.2 226.31,-744.2 226.31,-707 226.31,-707 226.31,-701 232.31,-695 238.31,-695 238.31,-695 360.27,-695 360.27,-695 366.27,-695 372.27,-701 372.27,-707 372.27,-707 372.27,-744.2 372.27,-744.2 372.27,-750.2 366.27,-756.2 360.27,-756.2"/>
<text text-anchor="middle" x="299.29" y="-729.8" font-family="Arial" font-size="14.00">PC is used to send</text>
<text text-anchor="middle" x="299.29" y="-713" font-family="Arial" font-size="14.00">config files to PLC</text>
</g>
<!-- reality&#45;&gt;PC -->
<g id="edge33" class="edge">
<title>reality&#45;&gt;PC</title>
<path fill="none" stroke="#2b303a" d="M589.65,-819.98C540.87,-814.21 451.17,-800.65 379.29,-773.2 370.69,-769.92 361.93,-765.77 353.52,-761.31"/>
<polygon fill="#2b303a" stroke="#2b303a" points="355,-758.13 344.55,-756.37 351.62,-764.26 355,-758.13"/>
</g>
<!-- Wireless -->
<g id="node4" class="node">
<title>Wireless</title>
<path fill="#d2d5dd" stroke="transparent" d="M510.41,-773.3C510.41,-773.3 398.17,-773.3 398.17,-773.3 392.17,-773.3 386.17,-767.3 386.17,-761.3 386.17,-761.3 386.17,-689.9 386.17,-689.9 386.17,-683.9 392.17,-677.9 398.17,-677.9 398.17,-677.9 510.41,-677.9 510.41,-677.9 516.41,-677.9 522.41,-683.9 522.41,-689.9 522.41,-689.9 522.41,-761.3 522.41,-761.3 522.41,-767.3 516.41,-773.3 510.41,-773.3"/>
<text text-anchor="middle" x="454.29" y="-746.6" font-family="Arial" font-size="14.00">wireless</text>
<text text-anchor="middle" x="454.29" y="-729.8" font-family="Arial" font-size="14.00">communication is</text>
<text text-anchor="middle" x="454.29" y="-713" font-family="Arial" font-size="14.00">used to push the</text>
<text text-anchor="middle" x="454.29" y="-696.2" font-family="Arial" font-size="14.00">config file</text>
</g>
<!-- reality&#45;&gt;Wireless -->
<g id="edge34" class="edge">
<title>reality&#45;&gt;Wireless</title>
<path fill="none" stroke="#2b303a" d="M589.85,-805.77C573.66,-797.45 554.11,-787.17 531.32,-774.29"/>
<polygon fill="#2b303a" stroke="#2b303a" points="532.85,-771.13 522.43,-769.23 529.38,-777.22 532.85,-771.13"/>
</g>
<!-- bt -->
<g id="node5" class="node">
<title>bt</title>
<path fill="#d2d5dd" stroke="transparent" d="M702.16,-756.2C702.16,-756.2 548.42,-756.2 548.42,-756.2 542.42,-756.2 536.42,-750.2 536.42,-744.2 536.42,-744.2 536.42,-707 536.42,-707 536.42,-701 542.42,-695 548.42,-695 548.42,-695 702.16,-695 702.16,-695 708.16,-695 714.16,-701 714.16,-707 714.16,-707 714.16,-744.2 714.16,-744.2 714.16,-750.2 708.16,-756.2 702.16,-756.2"/>
<text text-anchor="middle" x="625.29" y="-729.8" font-family="Arial" font-size="14.00">blue tooth is used to</text>
<text text-anchor="middle" x="625.29" y="-713" font-family="Arial" font-size="14.00">send commands to PLC</text>
</g>
<!-- reality&#45;&gt;bt -->
<g id="edge35" class="edge">
<title>reality&#45;&gt;bt</title>
<path fill="none" stroke="#2b303a" d="M625.29,-802.07C625.29,-791.71 625.29,-778.94 625.29,-766.88"/>
<polygon fill="#2b303a" stroke="#2b303a" points="628.79,-766.53 625.29,-756.53 621.79,-766.53 628.79,-766.53"/>
</g>
<!-- App -->
<g id="node6" class="node">
<title>App</title>
<path fill="#d2d5dd" stroke="transparent" d="M878.11,-765C878.11,-765 740.47,-765 740.47,-765 734.47,-765 728.47,-759 728.47,-753 728.47,-753 728.47,-698.2 728.47,-698.2 728.47,-692.2 734.47,-686.2 740.47,-686.2 740.47,-686.2 878.11,-686.2 878.11,-686.2 884.11,-686.2 890.11,-692.2 890.11,-698.2 890.11,-698.2 890.11,-753 890.11,-753 890.11,-759 884.11,-765 878.11,-765"/>
<text text-anchor="middle" x="809.29" y="-738.2" font-family="Arial" font-size="14.00">a mobile App is used</text>
<text text-anchor="middle" x="809.29" y="-721.4" font-family="Arial" font-size="14.00">to send commands to</text>
<text text-anchor="middle" x="809.29" y="-704.6" font-family="Arial" font-size="14.00">PLC</text>
</g>
<!-- reality&#45;&gt;App -->
<g id="edge36" class="edge">
<title>reality&#45;&gt;App</title>
<path fill="none" stroke="#2b303a" d="M660.87,-804.96C678.97,-795.47 701.31,-783.74 721.29,-773.2 723.34,-772.12 725.42,-771.02 727.51,-769.92"/>
<polygon fill="#2b303a" stroke="#2b303a" points="729.58,-772.78 736.79,-765.02 726.31,-766.59 729.58,-772.78"/>
</g>
<!-- Credential -->
<g id="node7" class="node">
<title>Credential</title>
<path fill="#d2d5dd" stroke="transparent" d="M1028.7,-765C1028.7,-765 915.88,-765 915.88,-765 909.88,-765 903.88,-759 903.88,-753 903.88,-753 903.88,-698.2 903.88,-698.2 903.88,-692.2 909.88,-686.2 915.88,-686.2 915.88,-686.2 1028.7,-686.2 1028.7,-686.2 1034.7,-686.2 1040.7,-692.2 1040.7,-698.2 1040.7,-698.2 1040.7,-753 1040.7,-753 1040.7,-759 1034.7,-765 1028.7,-765"/>
<text text-anchor="middle" x="972.29" y="-738.2" font-family="Arial" font-size="14.00">credential is used</text>
<text text-anchor="middle" x="972.29" y="-721.4" font-family="Arial" font-size="14.00">to transfer</text>
<text text-anchor="middle" x="972.29" y="-704.6" font-family="Arial" font-size="14.00">commands</text>
</g>
<!-- reality&#45;&gt;Credential -->
<g id="edge37" class="edge">
<title>reality&#45;&gt;Credential</title>
<path fill="none" stroke="#2b303a" d="M660.78,-821.24C713.82,-816.79 816.23,-804.6 897.29,-773.2 900.2,-772.07 903.12,-770.83 906.03,-769.5"/>
<polygon fill="#2b303a" stroke="#2b303a" points="907.83,-772.52 915.27,-764.97 904.75,-766.23 907.83,-772.52"/>
</g>
<!-- firmware -->
<g id="node8" class="node">
<title>firmware</title>
<path fill="#d2d5dd" stroke="transparent" d="M1172.23,-765C1172.23,-765 1066.35,-765 1066.35,-765 1060.35,-765 1054.35,-759 1054.35,-753 1054.35,-753 1054.35,-698.2 1054.35,-698.2 1054.35,-692.2 1060.35,-686.2 1066.35,-686.2 1066.35,-686.2 1172.23,-686.2 1172.23,-686.2 1178.23,-686.2 1184.23,-692.2 1184.23,-698.2 1184.23,-698.2 1184.23,-753 1184.23,-753 1184.23,-759 1178.23,-765 1172.23,-765"/>
<text text-anchor="middle" x="1119.29" y="-738.2" font-family="Arial" font-size="14.00">firmware can be</text>
<text text-anchor="middle" x="1119.29" y="-721.4" font-family="Arial" font-size="14.00">updated through</text>
<text text-anchor="middle" x="1119.29" y="-704.6" font-family="Arial" font-size="14.00">coordinating PC</text>
</g>
<!-- reality&#45;&gt;firmware -->
<g id="edge38" class="edge">
<title>reality&#45;&gt;firmware</title>
<path fill="none" stroke="#2b303a" d="M660.71,-821.43C748.9,-815.72 976.25,-798.86 1047.29,-773.2 1050.37,-772.09 1053.45,-770.82 1056.52,-769.44"/>
<polygon fill="#2b303a" stroke="#2b303a" points="1058.19,-772.52 1065.62,-764.96 1055.1,-766.23 1058.19,-772.52"/>
</g>
<!-- Human&#45;&gt;PC -->
<!-- Training -->
<g id="node19" class="node">
<title>Training</title>
<path fill="#b9d6f2" stroke="transparent" d="M177.3,-623.7C177.3,-623.7 75.28,-623.7 75.28,-623.7 69.28,-623.7 63.28,-617.7 63.28,-611.7 63.28,-611.7 63.28,-591.1 63.28,-591.1 63.28,-585.1 69.28,-579.1 75.28,-579.1 75.28,-579.1 177.3,-579.1 177.3,-579.1 183.3,-579.1 189.3,-585.1 189.3,-591.1 189.3,-591.1 189.3,-611.7 189.3,-611.7 189.3,-617.7 183.3,-623.7 177.3,-623.7"/>
<text text-anchor="middle" x="126.29" y="-597.2" font-family="Arial" font-size="14.00">security training</text>
</g>
<!-- Human&#45;&gt;Training -->
<g id="edge23" class="edge">
<title>Human&#45;&gt;Training</title>
<path fill="none" stroke="#2b303a" d="M134.52,-703.03C132.95,-683.84 130.64,-655.52 128.86,-633.81"/>
<polygon fill="#2b303a" stroke="#2b303a" points="132.34,-633.43 128.04,-623.75 125.36,-634 132.34,-633.43"/>
</g>
<!-- PC&#45;&gt;Wireless -->
<!-- HackPC -->
<g id="node12" class="node">
<title>HackPC</title>
<path fill="#ff92cc" stroke="transparent" d="M259.93,-499.4C259.93,-499.4 146.64,-499.4 146.64,-499.4 140.64,-499.4 134.64,-493.4 134.64,-487.4 134.64,-487.4 134.64,-450.2 134.64,-450.2 134.64,-444.2 140.64,-438.2 146.64,-438.2 146.64,-438.2 259.93,-438.2 259.93,-438.2 265.93,-438.2 271.93,-444.2 271.93,-450.2 271.93,-450.2 271.93,-487.4 271.93,-487.4 271.93,-493.4 265.93,-499.4 259.93,-499.4"/>
<text text-anchor="middle" x="203.29" y="-473" font-family="Arial" font-size="14.00">compromise PC&#39;s</text>
<text text-anchor="middle" x="203.29" y="-456.2" font-family="Arial" font-size="14.00">login credentials</text>
</g>
<!-- PC&#45;&gt;HackPC -->
<g id="edge13" class="edge">
<title>PC&#45;&gt;HackPC</title>
<path fill="none" stroke="#2b303a" d="M288.09,-694.87C270.76,-648.87 237.43,-560.41 218.12,-509.16"/>
<polygon fill="#2b303a" stroke="#2b303a" points="221.37,-507.86 214.57,-499.73 214.82,-510.32 221.37,-507.86"/>
</g>
<!-- HackPC2 -->
<g id="node13" class="node">
<title>HackPC2</title>
<path fill="#ff92cc" stroke="transparent" d="M416.93,-516.5C416.93,-516.5 297.65,-516.5 297.65,-516.5 291.65,-516.5 285.65,-510.5 285.65,-504.5 285.65,-504.5 285.65,-433.1 285.65,-433.1 285.65,-427.1 291.65,-421.1 297.65,-421.1 297.65,-421.1 416.93,-421.1 416.93,-421.1 422.93,-421.1 428.93,-427.1 428.93,-433.1 428.93,-433.1 428.93,-504.5 428.93,-504.5 428.93,-510.5 422.93,-516.5 416.93,-516.5"/>
<text text-anchor="middle" x="357.29" y="-489.8" font-family="Arial" font-size="14.00">use other</text>
<text text-anchor="middle" x="357.29" y="-473" font-family="Arial" font-size="14.00">coordinating PC to</text>
<text text-anchor="middle" x="357.29" y="-456.2" font-family="Arial" font-size="14.00">exploit the system</text>
<text text-anchor="middle" x="357.29" y="-439.4" font-family="Arial" font-size="14.00">vuls in target PC</text>
</g>
<!-- PC&#45;&gt;HackPC2 -->
<g id="edge14" class="edge">
<title>PC&#45;&gt;HackPC2</title>
<path fill="none" stroke="#2b303a" d="M306.06,-694.87C315.43,-653.68 332.56,-578.44 344.41,-526.36"/>
<polygon fill="#2b303a" stroke="#2b303a" points="347.83,-527.12 346.64,-516.6 341,-525.57 347.83,-527.12"/>
</g>
<!-- Wireless&#45;&gt;bt -->
<!-- Eavesdrop -->
<g id="node9" class="node">
<title>Eavesdrop</title>
<path fill="#ff92cc" stroke="transparent" d="M594.49,-632C594.49,-632 502.09,-632 502.09,-632 496.09,-632 490.09,-626 490.09,-620 490.09,-620 490.09,-582.8 490.09,-582.8 490.09,-576.8 496.09,-570.8 502.09,-570.8 502.09,-570.8 594.49,-570.8 594.49,-570.8 600.49,-570.8 606.49,-576.8 606.49,-582.8 606.49,-582.8 606.49,-620 606.49,-620 606.49,-626 600.49,-632 594.49,-632"/>
<text text-anchor="middle" x="548.29" y="-605.6" font-family="Arial" font-size="14.00">eavesdrop the</text>
<text text-anchor="middle" x="548.29" y="-588.8" font-family="Arial" font-size="14.00">configuration</text>
</g>
<!-- Wireless&#45;&gt;Eavesdrop -->
<g id="edge8" class="edge">
<title>Wireless&#45;&gt;Eavesdrop</title>
<path fill="none" stroke="#2b303a" d="M490.36,-677.7C499.95,-665.24 510.19,-651.93 519.34,-640.03"/>
<polygon fill="#2b303a" stroke="#2b303a" points="522.17,-642.1 525.49,-632.04 516.62,-637.83 522.17,-642.1"/>
</g>
<!-- Jam -->
<g id="node10" class="node">
<title>Jam</title>
<path fill="#ff92cc" stroke="transparent" d="M784.26,-649.1C784.26,-649.1 662.32,-649.1 662.32,-649.1 656.32,-649.1 650.32,-643.1 650.32,-637.1 650.32,-637.1 650.32,-565.7 650.32,-565.7 650.32,-559.7 656.32,-553.7 662.32,-553.7 662.32,-553.7 784.26,-553.7 784.26,-553.7 790.26,-553.7 796.26,-559.7 796.26,-565.7 796.26,-565.7 796.26,-637.1 796.26,-637.1 796.26,-643.1 790.26,-649.1 784.26,-649.1"/>
<text text-anchor="middle" x="723.29" y="-622.4" font-family="Arial" font-size="14.00">jam the network by</text>
<text text-anchor="middle" x="723.29" y="-605.6" font-family="Arial" font-size="14.00">flooding packets/</text>
<text text-anchor="middle" x="723.29" y="-588.8" font-family="Arial" font-size="14.00">interfere the</text>
<text text-anchor="middle" x="723.29" y="-572" font-family="Arial" font-size="14.00">channel</text>
</g>
<!-- Wireless&#45;&gt;Jam -->
<g id="edge10" class="edge">
<title>Wireless&#45;&gt;Jam</title>
<path fill="none" stroke="#2b303a" d="M522.61,-681.3C524.84,-680.16 527.07,-679.05 529.29,-678 564.95,-661.03 576.42,-663.16 613.29,-649 622.36,-645.52 631.81,-641.74 641.17,-637.91"/>
<polygon fill="#2b303a" stroke="#2b303a" points="642.59,-641.11 650.5,-634.06 639.92,-634.64 642.59,-641.11"/>
</g>
<!-- mitm -->
<g id="node16" class="node">
<title>mitm</title>
<path fill="#ff92cc" stroke="transparent" d="M643.71,-375.6C643.71,-375.6 502.87,-375.6 502.87,-375.6 496.87,-375.6 490.87,-369.6 490.87,-363.6 490.87,-363.6 490.87,-308.8 490.87,-308.8 490.87,-302.8 496.87,-296.8 502.87,-296.8 502.87,-296.8 643.71,-296.8 643.71,-296.8 649.71,-296.8 655.71,-302.8 655.71,-308.8 655.71,-308.8 655.71,-363.6 655.71,-363.6 655.71,-369.6 649.71,-375.6 643.71,-375.6"/>
<text text-anchor="middle" x="573.29" y="-348.8" font-family="Arial" font-size="14.00">man in the middle can</text>
<text text-anchor="middle" x="573.29" y="-332" font-family="Arial" font-size="14.00">intercept, modify</text>
<text text-anchor="middle" x="573.29" y="-315.2" font-family="Arial" font-size="14.00">and replay traffic</text>
</g>
<!-- Wireless&#45;&gt;mitm -->
<g id="edge17" class="edge">
<title>Wireless&#45;&gt;mitm</title>
<path fill="none" stroke="#2b303a" d="M451.14,-677.95C446.84,-602.39 442.2,-457.2 466.29,-412.8 472.6,-401.17 481.57,-390.92 491.66,-382.03"/>
<polygon fill="#2b303a" stroke="#2b303a" points="494.09,-384.56 499.57,-375.49 489.63,-379.16 494.09,-384.56"/>
</g>
<!-- bt&#45;&gt;App -->
<!-- bt&#45;&gt;Eavesdrop -->
<g id="edge9" class="edge">
<title>bt&#45;&gt;Eavesdrop</title>
<path fill="none" stroke="#2b303a" d="M606.45,-694.71C596.29,-678.58 583.63,-658.49 572.72,-641.18"/>
<polygon fill="#2b303a" stroke="#2b303a" points="575.49,-639 567.2,-632.41 569.57,-642.73 575.49,-639"/>
</g>
<!-- bt&#45;&gt;Jam -->
<g id="edge11" class="edge">
<title>bt&#45;&gt;Jam</title>
<path fill="none" stroke="#2b303a" d="M649.26,-694.71C658.37,-683.35 669.05,-670.04 679.41,-657.11"/>
<polygon fill="#2b303a" stroke="#2b303a" points="682.29,-659.12 685.81,-649.13 676.83,-654.74 682.29,-659.12"/>
</g>
<!-- bt&#45;&gt;mitm -->
<g id="edge18" class="edge">
<title>bt&#45;&gt;mitm</title>
<path fill="none" stroke="#2b303a" d="M628.84,-694.97C636.49,-627.47 652.43,-464.18 634.29,-412.8 630.68,-402.57 625.03,-392.71 618.6,-383.68"/>
<polygon fill="#2b303a" stroke="#2b303a" points="621.33,-381.49 612.51,-375.63 615.75,-385.72 621.33,-381.49"/>
</g>
<!-- App&#45;&gt;Credential -->
<!-- reverse -->
<g id="node14" class="node">
<title>reverse</title>
<path fill="#ff92cc" stroke="transparent" d="M1124.2,-649.1C1124.2,-649.1 1004.37,-649.1 1004.37,-649.1 998.37,-649.1 992.37,-643.1 992.37,-637.1 992.37,-637.1 992.37,-565.7 992.37,-565.7 992.37,-559.7 998.37,-553.7 1004.37,-553.7 1004.37,-553.7 1124.2,-553.7 1124.2,-553.7 1130.2,-553.7 1136.2,-559.7 1136.2,-565.7 1136.2,-565.7 1136.2,-637.1 1136.2,-637.1 1136.2,-643.1 1130.2,-649.1 1124.2,-649.1"/>
<text text-anchor="middle" x="1064.29" y="-622.4" font-family="Arial" font-size="14.00">reverse the app to</text>
<text text-anchor="middle" x="1064.29" y="-605.6" font-family="Arial" font-size="14.00">get sensitive data</text>
<text text-anchor="middle" x="1064.29" y="-588.8" font-family="Arial" font-size="14.00">and commands, or</text>
<text text-anchor="middle" x="1064.29" y="-572" font-family="Arial" font-size="14.00">credentials</text>
</g>
<!-- App&#45;&gt;reverse -->
<g id="edge15" class="edge">
<title>App&#45;&gt;reverse</title>
<path fill="none" stroke="#2b303a" d="M880.66,-686.33C886.26,-683.47 891.86,-680.66 897.29,-678 925.01,-664.4 955.71,-650.25 983.15,-637.92"/>
<polygon fill="#2b303a" stroke="#2b303a" points="984.62,-641.09 992.32,-633.81 981.76,-634.7 984.62,-641.09"/>
</g>
<!-- Credential&#45;&gt;firmware -->
<!-- bruteforce -->
<g id="node15" class="node">
<title>bruteforce</title>
<path fill="#ff92cc" stroke="transparent" d="M925.85,-632C925.85,-632 822.72,-632 822.72,-632 816.72,-632 810.72,-626 810.72,-620 810.72,-620 810.72,-582.8 810.72,-582.8 810.72,-576.8 816.72,-570.8 822.72,-570.8 822.72,-570.8 925.85,-570.8 925.85,-570.8 931.85,-570.8 937.85,-576.8 937.85,-582.8 937.85,-582.8 937.85,-620 937.85,-620 937.85,-626 931.85,-632 925.85,-632"/>
<text text-anchor="middle" x="874.29" y="-605.6" font-family="Arial" font-size="14.00">compromise the</text>
<text text-anchor="middle" x="874.29" y="-588.8" font-family="Arial" font-size="14.00">credentials</text>
</g>
<!-- Credential&#45;&gt;bruteforce -->
<g id="edge16" class="edge">
<title>Credential&#45;&gt;bruteforce</title>
<path fill="none" stroke="#2b303a" d="M941.55,-686.27C929.71,-671.51 916.21,-654.67 904.43,-639.98"/>
<polygon fill="#2b303a" stroke="#2b303a" points="907.06,-637.67 898.08,-632.06 901.6,-642.05 907.06,-637.67"/>
</g>
<!-- malware -->
<g id="node17" class="node">
<title>malware</title>
<path fill="#ff92cc" stroke="transparent" d="M990.4,-259.8C990.4,-259.8 864.18,-259.8 864.18,-259.8 858.18,-259.8 852.18,-253.8 852.18,-247.8 852.18,-247.8 852.18,-193 852.18,-193 852.18,-187 858.18,-181 864.18,-181 864.18,-181 990.4,-181 990.4,-181 996.4,-181 1002.4,-187 1002.4,-193 1002.4,-193 1002.4,-247.8 1002.4,-247.8 1002.4,-253.8 996.4,-259.8 990.4,-259.8"/>
<text text-anchor="middle" x="927.29" y="-233" font-family="Arial" font-size="14.00">modify the firmware</text>
<text text-anchor="middle" x="927.29" y="-216.2" font-family="Arial" font-size="14.00">to insert malicious</text>
<text text-anchor="middle" x="927.29" y="-199.4" font-family="Arial" font-size="14.00">commands in PLC</text>
</g>
<!-- firmware&#45;&gt;malware -->
<g id="edge21" class="edge">
<title>firmware&#45;&gt;malware</title>
<path fill="none" stroke="#2b303a" d="M1061.55,-686.26C1056.77,-683.39 1051.98,-680.6 1047.29,-678 1020.68,-663.26 1003.31,-673.51 985.29,-649 963.12,-618.85 940.22,-375.19 931.24,-269.74"/>
<polygon fill="#2b303a" stroke="#2b303a" points="934.72,-269.35 930.39,-259.68 927.74,-269.94 934.72,-269.35"/>
</g>
<!-- Eavesdrop&#45;&gt;Jam -->
<!-- Eavesdrop&#45;&gt;Jam -->
<!-- Encryption -->
<g id="node18" class="node">
<title>Encryption</title>
<path fill="#b9d6f2" stroke="transparent" d="M615.6,-516.5C615.6,-516.5 484.97,-516.5 484.97,-516.5 478.97,-516.5 472.97,-510.5 472.97,-504.5 472.97,-504.5 472.97,-433.1 472.97,-433.1 472.97,-427.1 478.97,-421.1 484.97,-421.1 484.97,-421.1 615.6,-421.1 615.6,-421.1 621.6,-421.1 627.6,-427.1 627.6,-433.1 627.6,-433.1 627.6,-504.5 627.6,-504.5 627.6,-510.5 621.6,-516.5 615.6,-516.5"/>
<text text-anchor="middle" x="550.29" y="-489.8" font-family="Arial" font-size="14.00">encrypt the traffic</text>
<text text-anchor="middle" x="550.29" y="-473" font-family="Arial" font-size="14.00">between</text>
<text text-anchor="middle" x="550.29" y="-456.2" font-family="Arial" font-size="14.00">coordinating PC and</text>
<text text-anchor="middle" x="550.29" y="-439.4" font-family="Arial" font-size="14.00">PLC</text>
</g>
<!-- Eavesdrop&#45;&gt;Encryption -->
<g id="edge22" class="edge">
<title>Eavesdrop&#45;&gt;Encryption</title>
<path fill="none" stroke="#2b303a" d="M548.74,-570.76C548.94,-557.74 549.18,-541.99 549.42,-526.83"/>
<polygon fill="#2b303a" stroke="#2b303a" points="552.92,-526.53 549.57,-516.48 545.92,-526.43 552.92,-526.53"/>
</g>
<!-- betterProtocol -->
<g id="node22" class="node">
<title>betterProtocol</title>
<path fill="#b9d6f2" stroke="transparent" d="M924.82,-508.2C924.82,-508.2 801.76,-508.2 801.76,-508.2 795.76,-508.2 789.76,-502.2 789.76,-496.2 789.76,-496.2 789.76,-441.4 789.76,-441.4 789.76,-435.4 795.76,-429.4 801.76,-429.4 801.76,-429.4 924.82,-429.4 924.82,-429.4 930.82,-429.4 936.82,-435.4 936.82,-441.4 936.82,-441.4 936.82,-496.2 936.82,-496.2 936.82,-502.2 930.82,-508.2 924.82,-508.2"/>
<text text-anchor="middle" x="863.29" y="-481.4" font-family="Arial" font-size="14.00">create better MAC</text>
<text text-anchor="middle" x="863.29" y="-464.6" font-family="Arial" font-size="14.00">protocols to reduce</text>
<text text-anchor="middle" x="863.29" y="-447.8" font-family="Arial" font-size="14.00">collision</text>
</g>
<!-- Jam&#45;&gt;betterProtocol -->
<g id="edge27" class="edge">
<title>Jam&#45;&gt;betterProtocol</title>
<path fill="none" stroke="#2b303a" d="M773.44,-553.62C786.94,-541.02 801.52,-527.42 814.93,-514.92"/>
<polygon fill="#2b303a" stroke="#2b303a" points="817.31,-517.47 822.24,-508.09 812.54,-512.36 817.31,-517.47"/>
</g>
<!-- breakSys -->
<g id="node26" class="node">
<title>breakSys</title>
<path fill="#5f00c2" stroke="transparent" d="M633.46,-61.4C633.46,-61.4 513.12,-61.4 513.12,-61.4 507.12,-61.4 501.12,-55.4 501.12,-49.4 501.12,-49.4 501.12,-12.2 501.12,-12.2 501.12,-6.2 507.12,-0.2 513.12,-0.2 513.12,-0.2 633.46,-0.2 633.46,-0.2 639.46,-0.2 645.46,-6.2 645.46,-12.2 645.46,-12.2 645.46,-49.4 645.46,-49.4 645.46,-55.4 639.46,-61.4 633.46,-61.4"/>
<text text-anchor="middle" x="573.29" y="-35" font-family="Arial" font-size="14.00" fill="#ffffff">break the system&#39;s</text>
<text text-anchor="middle" x="573.29" y="-18.2" font-family="Arial" font-size="14.00" fill="#ffffff">normal behavior</text>
</g>
<!-- Jam&#45;&gt;breakSys -->
<g id="edge1" class="edge">
<title>Jam&#45;&gt;breakSys</title>
<path fill="none" stroke="#2b303a" d="M716.26,-553.71C706.53,-492.33 687.31,-381.4 662.29,-288.6 641.1,-210.01 608.05,-120.74 588.75,-70.86"/>
<polygon fill="#2b303a" stroke="#2b303a" points="591.97,-69.47 585.08,-61.42 585.45,-72.01 591.97,-69.47"/>
</g>
<!-- Spy -->
<g id="node11" class="node">
<title>Spy</title>
<path fill="#ff92cc" stroke="transparent" d="M108.37,-524.8C108.37,-524.8 12.21,-524.8 12.21,-524.8 6.21,-524.8 0.21,-518.8 0.21,-512.8 0.21,-512.8 0.21,-424.8 0.21,-424.8 0.21,-418.8 6.21,-412.8 12.21,-412.8 12.21,-412.8 108.37,-412.8 108.37,-412.8 114.37,-412.8 120.37,-418.8 120.37,-424.8 120.37,-424.8 120.37,-512.8 120.37,-512.8 120.37,-518.8 114.37,-524.8 108.37,-524.8"/>
<text text-anchor="middle" x="60.29" y="-498.2" font-family="Arial" font-size="14.00">attacker might</text>
<text text-anchor="middle" x="60.29" y="-481.4" font-family="Arial" font-size="14.00">impersonate to</text>
<text text-anchor="middle" x="60.29" y="-464.6" font-family="Arial" font-size="14.00">employee and</text>
<text text-anchor="middle" x="60.29" y="-447.8" font-family="Arial" font-size="14.00">control the</text>
<text text-anchor="middle" x="60.29" y="-431" font-family="Arial" font-size="14.00">coordinate PC</text>
</g>
<!-- Multi&#45;level -->
<g id="node20" class="node">
<title>Multi&#45;level</title>
<path fill="#b9d6f2" stroke="transparent" d="M219.04,-383.9C219.04,-383.9 103.54,-383.9 103.54,-383.9 97.54,-383.9 91.54,-377.9 91.54,-371.9 91.54,-371.9 91.54,-300.5 91.54,-300.5 91.54,-294.5 97.54,-288.5 103.54,-288.5 103.54,-288.5 219.04,-288.5 219.04,-288.5 225.04,-288.5 231.04,-294.5 231.04,-300.5 231.04,-300.5 231.04,-371.9 231.04,-371.9 231.04,-377.9 225.04,-383.9 219.04,-383.9"/>
<text text-anchor="middle" x="161.29" y="-357.2" font-family="Arial" font-size="14.00">design different</text>
<text text-anchor="middle" x="161.29" y="-340.4" font-family="Arial" font-size="14.00">operating level for</text>
<text text-anchor="middle" x="161.29" y="-323.6" font-family="Arial" font-size="14.00">different</text>
<text text-anchor="middle" x="161.29" y="-306.8" font-family="Arial" font-size="14.00">employees</text>
</g>
<!-- Spy&#45;&gt;Multi&#45;level -->
<g id="edge24" class="edge">
<title>Spy&#45;&gt;Multi&#45;level</title>
<path fill="none" stroke="#2b303a" d="M102.83,-412.79C108.18,-405.88 113.65,-398.81 118.99,-391.9"/>
<polygon fill="#2b303a" stroke="#2b303a" points="121.84,-393.93 125.19,-383.88 116.3,-389.65 121.84,-393.93"/>
</g>
<!-- Spy&#45;&gt;breakSys -->
<g id="edge4" class="edge">
<title>Spy&#45;&gt;breakSys</title>
<path fill="none" stroke="#2b303a" d="M61.5,-412.72C66.72,-326.91 90.82,-163.59 196.29,-90.6 242.78,-58.42 394.91,-43.01 491.11,-36.32"/>
<polygon fill="#2b303a" stroke="#2b303a" points="491.37,-39.81 501.11,-35.64 490.9,-32.82 491.37,-39.81"/>
</g>
<!-- HackPC&#45;&gt;HackPC2 -->
<!-- HackPC&#45;&gt;Multi&#45;level -->
<g id="edge25" class="edge">
<title>HackPC&#45;&gt;Multi&#45;level</title>
<path fill="none" stroke="#2b303a" d="M193.76,-438.16C189.53,-425.02 184.41,-409.08 179.49,-393.8"/>
<polygon fill="#2b303a" stroke="#2b303a" points="182.69,-392.33 176.3,-383.88 176.03,-394.47 182.69,-392.33"/>
</g>
<!-- betterCredentials -->
<g id="node24" class="node">
<title>betterCredentials</title>
<path fill="#b9d6f2" stroke="transparent" d="M822.09,-366.8C822.09,-366.8 712.49,-366.8 712.49,-366.8 706.49,-366.8 700.49,-360.8 700.49,-354.8 700.49,-354.8 700.49,-317.6 700.49,-317.6 700.49,-311.6 706.49,-305.6 712.49,-305.6 712.49,-305.6 822.09,-305.6 822.09,-305.6 828.09,-305.6 834.09,-311.6 834.09,-317.6 834.09,-317.6 834.09,-354.8 834.09,-354.8 834.09,-360.8 828.09,-366.8 822.09,-366.8"/>
<text text-anchor="middle" x="767.29" y="-340.4" font-family="Arial" font-size="14.00">use credentials</text>
<text text-anchor="middle" x="767.29" y="-323.6" font-family="Arial" font-size="14.00">with high entropy</text>
</g>
<!-- HackPC&#45;&gt;betterCredentials -->
<g id="edge29" class="edge">
<title>HackPC&#45;&gt;betterCredentials</title>
<path fill="none" stroke="#2b303a" d="M235.66,-437.95C248.09,-428.21 262.99,-418.45 278.29,-412.8 438.83,-353.46 496.31,-425.57 662.29,-383.8 675,-380.6 688.11,-375.97 700.58,-370.86"/>
<polygon fill="#2b303a" stroke="#2b303a" points="702.13,-374 709.96,-366.87 699.39,-367.56 702.13,-374"/>
</g>
<!-- HackPC&#45;&gt;breakSys -->
<g id="edge2" class="edge">
<title>HackPC&#45;&gt;breakSys</title>
<path fill="none" stroke="#2b303a" d="M216.42,-438.12C223.28,-422.16 231.63,-402.05 238.29,-383.8 253.5,-342.13 248.32,-328.21 268.29,-288.6 317.28,-191.44 325.41,-156.11 412.29,-90.6 435.46,-73.13 464.34,-60.43 491.22,-51.41"/>
<polygon fill="#2b303a" stroke="#2b303a" points="492.58,-54.66 501.02,-48.26 490.43,-47.99 492.58,-54.66"/>
</g>
<!-- updateSys -->
<g id="node21" class="node">
<title>updateSys</title>
<path fill="#b9d6f2" stroke="transparent" d="M428.97,-383.9C428.97,-383.9 287.61,-383.9 287.61,-383.9 281.61,-383.9 275.61,-377.9 275.61,-371.9 275.61,-371.9 275.61,-300.5 275.61,-300.5 275.61,-294.5 281.61,-288.5 287.61,-288.5 287.61,-288.5 428.97,-288.5 428.97,-288.5 434.97,-288.5 440.97,-294.5 440.97,-300.5 440.97,-300.5 440.97,-371.9 440.97,-371.9 440.97,-377.9 434.97,-383.9 428.97,-383.9"/>
<text text-anchor="middle" x="358.29" y="-357.2" font-family="Arial" font-size="14.00">ensure the PC&#39;s OS is</text>
<text text-anchor="middle" x="358.29" y="-340.4" font-family="Arial" font-size="14.00">up to date, not using</text>
<text text-anchor="middle" x="358.29" y="-323.6" font-family="Arial" font-size="14.00">vulnerable</text>
<text text-anchor="middle" x="358.29" y="-306.8" font-family="Arial" font-size="14.00">software</text>
</g>
<!-- HackPC2&#45;&gt;updateSys -->
<g id="edge26" class="edge">
<title>HackPC2&#45;&gt;updateSys</title>
<path fill="none" stroke="#2b303a" d="M357.65,-421.02C357.71,-412.3 357.78,-403.1 357.85,-394.11"/>
<polygon fill="#2b303a" stroke="#2b303a" points="361.35,-394.12 357.93,-384.09 354.35,-394.07 361.35,-394.12"/>
</g>
<!-- HackPC2&#45;&gt;breakSys -->
<g id="edge3" class="edge">
<title>HackPC2&#45;&gt;breakSys</title>
<path fill="none" stroke="#2b303a" d="M416.59,-420.93C428.23,-409.7 439.53,-397.08 448.29,-383.8 452.8,-376.96 528.15,-161.39 559.63,-71.04"/>
<polygon fill="#2b303a" stroke="#2b303a" points="563,-72.02 562.98,-61.42 556.39,-69.71 563,-72.02"/>
</g>
<!-- pack -->
<g id="node23" class="node">
<title>pack</title>
<path fill="#b9d6f2" stroke="transparent" d="M1134.74,-516.5C1134.74,-516.5 993.84,-516.5 993.84,-516.5 987.84,-516.5 981.84,-510.5 981.84,-504.5 981.84,-504.5 981.84,-433.1 981.84,-433.1 981.84,-427.1 987.84,-421.1 993.84,-421.1 993.84,-421.1 1134.74,-421.1 1134.74,-421.1 1140.74,-421.1 1146.74,-427.1 1146.74,-433.1 1146.74,-433.1 1146.74,-504.5 1146.74,-504.5 1146.74,-510.5 1140.74,-516.5 1134.74,-516.5"/>
<text text-anchor="middle" x="1064.29" y="-489.8" font-family="Arial" font-size="14.00">pack and sign the app</text>
<text text-anchor="middle" x="1064.29" y="-473" font-family="Arial" font-size="14.00">to avoid reverse</text>
<text text-anchor="middle" x="1064.29" y="-456.2" font-family="Arial" font-size="14.00">engineering,</text>
<text text-anchor="middle" x="1064.29" y="-439.4" font-family="Arial" font-size="14.00">anti&#45;debugging</text>
</g>
<!-- reverse&#45;&gt;pack -->
<g id="edge28" class="edge">
<title>reverse&#45;&gt;pack</title>
<path fill="none" stroke="#2b303a" d="M1064.29,-553.62C1064.29,-544.9 1064.29,-535.7 1064.29,-526.71"/>
<polygon fill="#2b303a" stroke="#2b303a" points="1067.79,-526.69 1064.29,-516.69 1060.79,-526.69 1067.79,-526.69"/>
</g>
<!-- reverse&#45;&gt;breakSys -->
<g id="edge6" class="edge">
<title>reverse&#45;&gt;breakSys</title>
<path fill="none" stroke="#2b303a" d="M1132.04,-553.47C1140.43,-544.87 1147.93,-535.27 1153.29,-524.8 1191.41,-450.35 1168.29,-420.84 1168.29,-337.2 1168.29,-337.2 1168.29,-337.2 1168.29,-219.4 1168.29,-118.12 1074.64,-127.42 980.29,-90.6 873.24,-48.82 739.91,-36.34 655.67,-32.82"/>
<polygon fill="#2b303a" stroke="#2b303a" points="655.77,-29.32 645.64,-32.44 655.5,-36.32 655.77,-29.32"/>
</g>
<!-- bruteforce&#45;&gt;betterCredentials -->
<g id="edge30" class="edge">
<title>bruteforce&#45;&gt;betterCredentials</title>
<path fill="none" stroke="#2b303a" d="M823.62,-570.44C807.67,-558.36 791.76,-542.94 782.29,-524.8 758.13,-478.54 758.28,-416.98 761.81,-377.21"/>
<polygon fill="#2b303a" stroke="#2b303a" points="765.3,-377.4 762.82,-367.1 758.34,-376.7 765.3,-377.4"/>
</g>
<!-- mitm&#45;&gt;malware -->
<g id="edge20" class="edge">
<title>mitm&#45;&gt;malware</title>
<path fill="none" stroke="#2b303a" d="M655.88,-302C668.35,-297.31 681.11,-292.7 693.29,-288.6 742.27,-272.1 797.84,-256.03 842.54,-243.74"/>
<polygon fill="#2b303a" stroke="#2b303a" points="843.47,-247.11 852.2,-241.1 841.63,-240.36 843.47,-247.11"/>
</g>
<!-- mitm&#45;&gt;breakSys -->
<g id="edge7" class="edge">
<title>mitm&#45;&gt;breakSys</title>
<path fill="none" stroke="#2b303a" d="M573.29,-296.77C573.29,-239.13 573.29,-130.79 573.29,-72.08"/>
<polygon fill="#2b303a" stroke="#2b303a" points="576.79,-71.72 573.29,-61.72 569.79,-71.72 576.79,-71.72"/>
</g>
<!-- sigCheck -->
<g id="node25" class="node">
<title>sigCheck</title>
<path fill="#b9d6f2" stroke="transparent" d="M898.16,-152C898.16,-152 772.42,-152 772.42,-152 766.42,-152 760.42,-146 760.42,-140 760.42,-140 760.42,-102.8 760.42,-102.8 760.42,-96.8 766.42,-90.8 772.42,-90.8 772.42,-90.8 898.16,-90.8 898.16,-90.8 904.16,-90.8 910.16,-96.8 910.16,-102.8 910.16,-102.8 910.16,-140 910.16,-140 910.16,-146 904.16,-152 898.16,-152"/>
<text text-anchor="middle" x="835.29" y="-125.6" font-family="Arial" font-size="14.00">check the signature</text>
<text text-anchor="middle" x="835.29" y="-108.8" font-family="Arial" font-size="14.00">of firmware</text>
</g>
<!-- malware&#45;&gt;sigCheck -->
<g id="edge31" class="edge">
<title>malware&#45;&gt;sigCheck</title>
<path fill="none" stroke="#2b303a" d="M890.93,-181.06C884.22,-173.99 877.22,-166.61 870.54,-159.56"/>
<polygon fill="#2b303a" stroke="#2b303a" points="872.86,-156.93 863.44,-152.08 867.78,-161.75 872.86,-156.93"/>
</g>
<!-- malware&#45;&gt;breakSys -->
<g id="edge5" class="edge">
<title>malware&#45;&gt;breakSys</title>
<path fill="none" stroke="#2b303a" d="M935.68,-181.01C939.5,-152.49 939.13,-114.54 917.29,-90.6 883.08,-53.1 746.31,-39.5 655.87,-34.58"/>
<polygon fill="#2b303a" stroke="#2b303a" points="655.8,-31.07 645.63,-34.05 655.43,-38.06 655.8,-31.07"/>
</g>
<!-- Encryption&#45;&gt;mitm -->
<g id="edge19" class="edge">
<title>Encryption&#45;&gt;mitm</title>
<path fill="none" stroke="#2b303a" d="M558.53,-421.02C560.56,-409.47 562.74,-397.08 564.79,-385.46"/>
<polygon fill="#2b303a" stroke="#2b303a" points="568.26,-385.95 566.55,-375.49 561.36,-384.73 568.26,-385.95"/>
</g>
<!-- Training&#45;&gt;Spy -->
<g id="edge12" class="edge">
<title>Training&#45;&gt;Spy</title>
<path fill="none" stroke="#2b303a" d="M115.39,-578.83C109.12,-566.42 100.88,-550.12 92.69,-533.91"/>
<polygon fill="#2b303a" stroke="#2b303a" points="95.79,-532.28 88.15,-524.93 89.54,-535.44 95.79,-532.28"/>
</g>
<!-- Multi&#45;level&#45;&gt;betterCredentials -->
<!-- Multi&#45;level&#45;&gt;breakSys -->
<!-- updateSys&#45;&gt;breakSys -->
<!-- betterProtocol&#45;&gt;breakSys -->
<!-- pack&#45;&gt;breakSys -->
<!-- betterCredentials&#45;&gt;breakSys -->
<!-- sigCheck&#45;&gt;breakSys -->
</g>
</svg>
